# xmcd
#
# Track frame offsets:
#	150
#	20754
#	39396
#	59053
#	78855
#	93941
#	107295
#	121406
#	138601
#
# Disc length: 2056 seconds
#
# Revision: 2
# Processed by: cddbd v1.5.2PL0 Copyright (c) Steve Scherf et al.
# Submitted via: audiograbber 1.83.01
#
DISCID=71080609
DTITLE=Singer's Solution - SSC431
DYEAR=2014
DGENRE=Karaoke
TTITLE0=Hunter Hayes - Invisible
TTITLE1=Miranda Lambert - Automatic
TTITLE2=Keith Urban - Cop Car
TTITLE3=Tim McGraw - Lookin' For That Girl
TTITLE4=Rascal Flatts - Rewind
TTITLE5=Thompson Square - Everything I Shouldn't Be Thinking About
TTITLE6=Brett Eldredge - Beat Of The Music
TTITLE7=Blake Shelton - Doin' What She Likes
TTITLE8=Moore, Justin - Lettin' The Night Roll
EXTD=
EXTT0=
EXTT1=
EXTT2=
EXTT3=
EXTT4=
EXTT5=
EXTT6=
EXTT7=
EXTT8=
PLAYORDER=
